<svg width="20" height="20" viewBox="0 0 20 20" fill="white" xmlns="http://www.w3.org/2000/svg">
                  <path fill-rule="evenodd" clip-rule="evenodd" d="M1.74389 0.669735C1.80273 0.674264 1.86126 0.68398 1.91871 0.698883L13.9847 3.61135C14.3632 3.70272 14.6542 4.00549 14.7306 4.38732L15.6563 9.01573C15.9675 8.96004 16.3 9.05243 16.5404 9.29291L19.0404 11.7929C19.431 12.1834 19.431 12.8166 19.0404 13.2071L13.2071 19.0405C12.8166 19.431 12.1834 19.431 11.7929 19.0405L9.29289 16.5405C9.05243 16.3 8.96003 15.9675 9.0157 15.6564L4.38724 14.7307C4.00541 14.6543 3.70264 14.3633 3.61127 13.9847L0.698802 1.9188C0.683869 1.86122 0.674143 1.80258 0.669626 1.74361C0.648108 1.46273 0.744759 1.17448 0.95958 0.959662C1.13665 0.782593 1.3636 0.685809 1.5952 0.669311C1.64446 0.665776 1.69416 0.66588 1.74389 0.669735ZM6.711 8.1253L3.4727 4.887L5.40561 12.8947L10.5046 13.9145L13.9145 10.5047L12.8947 5.40569L4.88692 3.47278L8.12519 6.71106C8.44516 6.57518 8.79714 6.50002 9.16667 6.50002C10.6394 6.50002 11.8333 7.69393 11.8333 9.16669C11.8333 10.6394 10.6394 11.8334 9.16667 11.8334C7.69391 11.8334 6.5 10.6394 6.5 9.16669C6.5 8.79719 6.57515 8.44524 6.711 8.1253ZM8.68394 8.70689C8.56997 8.8265 8.5 8.98842 8.5 9.16669C8.5 9.53488 8.79848 9.83335 9.16667 9.83335C9.53486 9.83335 9.83333 9.53488 9.83333 9.16669C9.83333 8.7985 9.53486 8.50002 9.16667 8.50002C8.98839 8.50002 8.82646 8.57 8.70684 8.68398C8.70309 8.68786 8.69929 8.69171 8.69546 8.69554C8.69164 8.69936 8.6878 8.70314 8.68394 8.70689ZM11.5319 15.7157L11.5405 15.7072L15.7071 11.5405L15.7155 11.5321L15.8333 11.4142L16.9191 12.5L12.5 16.9191L11.4142 15.8334L11.5319 15.7157Z"></path>
                </svg>
